<svg width="0" height="0" class="hidden">
    <symbol xmlns="http://www.w3.org/2000/svg" width="13" height="24" viewBox="0 0 13 24" fill="none" id="angle">
        <path d="M12.4804 0.825931C12.8755 1.22104 12.9115 1.83931 12.5882 2.27499L12.4804 2.39981L2.88078 12L12.4804 21.6001C12.8755 21.9952 12.9115 22.6135 12.5882 23.0492L12.4804 23.174C12.0853 23.5691 11.4671 23.605 11.0314 23.2818L10.9065 23.174L0.519455 12.7869C0.124349 12.3918 0.0884302 11.7735 0.411698 11.3378L0.519455 11.213L10.9066 0.825931C11.3412 0.391315 12.0458 0.391315 12.4804 0.825931Z" fill="black"/>
    </symbol>
    <symbol fill="none" xmlns="http://www.w3.org/2000/svg" viewBox="0 0 24 24" id="arrow">
        <path fill-rule="evenodd" clip-rule="evenodd" d="M11.5303 5.46967C11.8232 5.76256 11.8232 6.23744 11.5303 6.53033L6.81066 11.25H19C19.4142 11.25 19.75 11.5858 19.75 12C19.75 12.4142 19.4142 12.75 19 12.75H6.81066L11.5303 17.4697C11.8232 17.7626 11.8232 18.2374 11.5303 18.5303C11.2374 18.8232 10.7626 18.8232 10.4697 18.5303L4.46967 12.5303C4.17678 12.2374 4.17678 11.7626 4.46967 11.4697L10.4697 5.46967C10.7626 5.17678 11.2374 5.17678 11.5303 5.46967Z" fill="#1D1D1D"></path>
    </symbol>
    <symbol fill="none" xmlns="http://www.w3.org/2000/svg" viewBox="0 0 24 24" id="cart">
        <path fill-rule="evenodd" clip-rule="evenodd" d="M20.5 6H7.58198L7.16573 4.47377C6.92843 3.60364 6.13811 3 5.2362 3H3C2.44772 3 2 3.44772 2 4C2 4.55228 2.44772 5 3 5H5.2362L7.79746 14.3913C8.06753 15.3815 9.04335 16.0066 10.0558 15.8378L20.3288 14.1257C21.2932 13.9649 22 13.1306 22 12.1529V7.5C22 6.67157 21.3284 6 20.5 6ZM7 21C8.10457 21 9 20.1046 9 19C9 17.8954 8.10457 17 7 17C5.89543 17 5 17.8954 5 19C5 20.1046 5.89543 21 7 21ZM17 21C18.1046 21 19 20.1046 19 19C19 17.8954 18.1046 17 17 17C15.8954 17 15 17.8954 15 19C15 20.1046 15.8954 21 17 21Z" fill="#D3112B"></path>
    </symbol>
    <symbol fill="none" xmlns="http://www.w3.org/2000/svg" viewBox="0 0 33 32" id="icon-search">
        <g opacity="0.99">
            <path fill-rule="evenodd" clip-rule="evenodd" d="M21.8015 19.7266C21.8015 19.7266 26.6013 24.3809 27.5417 25.2929L26.0833 26.7071L20.2247 21.0261C18.7907 21.957 17.0662 22.5 15.2109 22.5C10.2274 22.5 6.1875 18.5825 6.1875 13.75C6.1875 8.9175 10.2274 5 15.2109 5C20.1945 5 24.2344 8.9175 24.2344 13.75C24.2344 16.0609 23.3106 18.1625 21.8015 19.7266ZM15.2109 7C11.3726 7 8.25 10.028 8.25 13.75C8.25 17.472 11.3726 20.5 15.2109 20.5C19.0492 20.5 22.1719 17.472 22.1719 13.75C22.1719 10.028 19.0492 7 15.2109 7Z" fill="#D3112B"></path>
        </g>
    </symbol>
    <symbol fill="none" xmlns="http://www.w3.org/2000/svg" viewBox="0 0 24 24" id="lang">
        <path d="M5 8L11 14M4 14L10 8L12 5M2 5H14M7 2H8M22 22L17 12L12 22M14 18H20" stroke="#D3112B" stroke-width="2" stroke-linecap="round" stroke-linejoin="round"></path>
    </symbol>
    <symbol fill="none" xmlns="http://www.w3.org/2000/svg" viewBox="0 0 142 80" id="logo">
        <path fill-rule="evenodd" clip-rule="evenodd" d="M20.3704 31.7775H60.174V30.1031H20.3704V31.7775Z" fill="#D3112B"></path>
        <path fill-rule="evenodd" clip-rule="evenodd" d="M50.8642 34.8275H46.4643V50.4828H44.3594V39.8607C44.3594 38.9713 44.3085 38.4089 44.1433 37.8592C43.8246 36.7606 43.0842 35.5864 42.1536 35.1151C41.5918 34.8275 40.9418 34.7098 40.2658 34.7098C39.4756 34.7098 38.7352 34.8798 38.111 35.2722C37.2814 35.7824 36.6436 36.8912 36.3508 37.9642C36.2107 38.4611 36.1722 39.0101 36.1722 39.8607V50.4828H34.0683V34.8275H29.6681V50.4828H27.5896L27.5636 34.8275H23.3039V50.4828H21.2125V34.8275H20.3704V33.1531H60.1738V34.8275H59.3326V50.4828H57.2412V34.8275H52.9556V50.4828H50.8642V34.8275Z" fill="#D3112B"></path>
        <path fill-rule="evenodd" clip-rule="evenodd" d="M20.9651 27.507L22.1894 25.8325L23.4012 27.507L22.1894 29.1814L20.9651 27.507Z" fill="#D3112B"></path>
        <path fill-rule="evenodd" clip-rule="evenodd" d="M26.5131 57.2906C27.2266 57.6048 27.8391 58.3638 27.8391 59.4624C27.8391 60.8754 27.0864 61.7776 26.1299 62.0523C25.5432 62.2355 24.9316 62.2355 24.3708 62.2355H20.9647V52.6733H24.5744C25.0208 52.6733 25.5184 52.6859 26.0158 52.8171C26.8704 53.0523 27.6605 53.7851 27.6605 55.1326C27.6605 56.3752 26.9721 56.9769 26.5131 57.2256V57.2906ZM24.6376 56.8199C24.9701 56.8199 25.2753 56.7805 25.5307 56.6239C25.9004 56.4145 26.1559 55.9698 26.1559 55.3026C26.1559 54.6485 25.8496 54.2166 25.403 54.0601C25.1871 53.9683 24.9191 53.9417 24.5744 53.9417H22.4445V56.8199H24.6376ZM26.2961 59.4624C26.2961 58.7691 25.9648 58.3766 25.5691 58.2066C25.3138 58.1017 25.0208 58.0757 24.7655 58.0757H22.4445V60.9797H24.7405C25.0208 60.9797 25.2888 60.9537 25.5059 60.8754C26.0033 60.6788 26.2961 60.2209 26.2961 59.4624Z" fill="#D3112B"></path>
        <path fill-rule="evenodd" clip-rule="evenodd" d="M28.2829 27.4414C27.9642 27.3236 27.7346 27.0227 27.7346 26.6569C27.7346 26.1988 28.0918 25.8324 28.5509 25.8324C28.9974 25.8324 29.3546 26.1988 29.3546 26.6569C29.3546 27.0227 29.1375 27.3236 28.8188 27.4286L29.5966 29.0507H27.505L28.2829 27.4414Z" fill="#D3112B"></path>
        <path fill-rule="evenodd" clip-rule="evenodd" d="M39.6473 60.8356L38.6525 62.2352H29.291L34.3669 52.673H37.479V60.8751L39.6473 60.8356ZM36.0251 60.9399V53.8371H35.0563L31.3699 60.9399H36.0251Z" fill="#D3112B"></path>
        <path fill-rule="evenodd" clip-rule="evenodd" d="M34.0483 28.9307H46.4443V27.2562H34.0483V28.9307Z" fill="#D3112B"></path>
        <path fill-rule="evenodd" clip-rule="evenodd" d="M37.8139 25.881H42.839V24.2065H37.8139V25.881Z" fill="#D3112B"></path>
        <path fill-rule="evenodd" clip-rule="evenodd" d="M38.4092 19.7676H42.1081V18.106H38.4092V19.7676Z" fill="#D3112B"></path>
        <path fill-rule="evenodd" clip-rule="evenodd" d="M38.8057 21.1559H41.5349L40.1702 23.0396L38.8057 21.1559Z" fill="#D3112B"></path>
        <path fill-rule="evenodd" clip-rule="evenodd" d="M49.4588 52.673V62.2354H47.979V57.8007H43.2478V62.2354H41.7805V52.673H43.2478V56.4926H47.979V52.673H49.4588Z" fill="#D3112B"></path>
        <path fill-rule="evenodd" clip-rule="evenodd" d="M51.6787 27.4286C51.3599 27.3236 51.1428 27.0227 51.1428 26.6569C51.1428 26.1988 51.5001 25.8324 51.9467 25.8324C52.4056 25.8324 52.7628 26.1988 52.7628 26.6569C52.7628 27.0227 52.5333 27.3236 52.2145 27.4414L52.9924 29.0507H50.9008L51.6787 27.4286Z" fill="#D3112B"></path>
        <path fill-rule="evenodd" clip-rule="evenodd" d="M55.932 58.3368L53.3692 62.2351H51.8894L55.2311 57.3037L52.043 52.6729H53.8157L56.1366 56.0479L58.3422 52.6729H59.7711L56.8251 57.0682L60.3704 62.2351H58.6102L55.932 58.3368Z" fill="#D3112B"></path>
        <path fill-rule="evenodd" clip-rule="evenodd" d="M57.0434 27.5069L58.2552 25.8325L59.4796 27.5069L58.2552 29.1814L57.0434 27.5069Z" fill="#D3112B"></path>
        <path d="M72.065 18H79.0077C79.0467 18 79.0727 18.0261 79.0727 18.0651V19.0682C79.0727 19.1073 79.0467 19.1203 79.0077 19.1203H76.1214V27.0536C76.1214 27.0927 76.0954 27.1187 76.0564 27.1187H75.0163C74.9773 27.1187 74.9513 27.0927 74.9513 27.0536V19.1203H72.065C72.026 19.1203 72 19.1073 72 19.0682V18.0651C72 18.0261 72.026 18 72.065 18Z" fill="#E22C38"></path>
        <path d="M83.2161 19.8368L81.7729 23.5494H84.7242L83.2161 19.8368ZM80.4078 27.0796C80.3948 27.1057 80.3948 27.1187 80.3558 27.1187H79.2897C79.2377 27.1187 79.1987 27.0796 79.2247 27.0275L82.761 18.0391C82.774 18.013 82.787 18 82.826 18H83.6841C83.7101 18 83.7231 18.013 83.7361 18.0391L87.3505 27.0275C87.3635 27.0796 87.3375 27.1187 87.2855 27.1187H86.2064C86.1804 27.1187 86.1674 27.1057 86.1544 27.0796L85.1663 24.6306H81.3569L80.4078 27.0796Z" fill="#E22C38"></path>
        <path d="M80.0608 42.2862L80.7369 42.9506C80.7629 42.9636 80.7629 42.9896 80.7369 43.0287C79.8788 43.9666 78.7217 44.631 77.0445 44.631C74.3662 44.631 72.5591 42.6249 72.5591 39.9544C72.5591 37.2839 74.4442 35.2127 77.0835 35.2127C78.7217 35.2127 79.7878 35.8249 80.7759 36.9061C80.8019 36.9322 80.8019 36.9583 80.7759 36.9843L80.0348 37.6747C80.0088 37.7008 79.9698 37.7008 79.9438 37.6747C79.1637 36.8019 78.3316 36.3069 77.1485 36.3069C75.1073 36.3069 73.7682 37.8962 73.7682 39.9414C73.7682 41.9866 75.0163 43.5237 77.2265 43.5237C78.3056 43.5237 79.1637 43.1069 79.9698 42.2862C79.9958 42.2732 80.0218 42.2601 80.0608 42.2862Z" fill="#E22C38"></path>
        <path d="M85.3491 37.2058L83.906 40.9184H86.8573L85.3491 37.2058ZM82.5408 44.4486C82.5278 44.4747 82.5278 44.4877 82.4888 44.4877H81.4227C81.3707 44.4877 81.3317 44.4486 81.3577 44.3965L84.8941 35.4081C84.9071 35.382 84.9201 35.369 84.9591 35.369H85.8172C85.8432 35.369 85.8562 35.382 85.8692 35.4081L89.4835 44.3965C89.4965 44.4486 89.4705 44.4877 89.4185 44.4877H88.3394C88.3134 44.4877 88.3004 44.4747 88.2874 44.4486L87.2993 41.9996H83.4899L82.5408 44.4486Z" fill="#E22C38"></path>
        <path d="M98.0978 35.369H98.9169C98.9559 35.369 98.9689 35.382 98.9819 35.4341L101.075 44.4226C101.088 44.4617 101.062 44.4877 101.023 44.4877H99.957C99.918 44.4877 99.905 44.4747 99.892 44.4356L98.3058 37.5575L96.1736 42.8594C96.1606 42.8854 96.1476 42.8985 96.1086 42.8985H95.2115C95.1855 42.8985 95.1595 42.8854 95.1465 42.8594L92.9233 37.5445L91.4151 44.4356C91.4021 44.4747 91.3891 44.4877 91.3501 44.4877H90.31C90.271 44.4877 90.245 44.4617 90.258 44.4226L92.2992 35.4341C92.3122 35.382 92.3252 35.369 92.3642 35.369H93.1703C93.2093 35.369 93.2223 35.369 93.2483 35.4211L95.6926 41.2701L98.0198 35.4341C98.0458 35.369 98.0588 35.369 98.0978 35.369Z" fill="#E22C38"></path>
        <path d="M105.829 37.2058L104.386 40.9184H107.337L105.829 37.2058ZM103.02 44.4486C103.007 44.4747 103.007 44.4877 102.968 44.4877H101.902C101.85 44.4877 101.811 44.4486 101.837 44.3965L105.374 35.4081C105.387 35.382 105.4 35.369 105.439 35.369H106.297C106.323 35.369 106.336 35.382 106.349 35.4081L109.963 44.3965C109.976 44.4486 109.95 44.4877 109.898 44.4877H108.819C108.793 44.4877 108.78 44.4747 108.767 44.4486L107.779 41.9996H103.97L103.02 44.4486Z" fill="#E22C38"></path>
        <path d="M116.237 39.733V36.4242H114.144C113.143 36.4242 112.532 37.1667 112.532 38.0916C112.532 39.0556 113.195 39.733 114.235 39.733H116.237ZM112.038 44.4617C112.012 44.4877 111.999 44.4877 111.973 44.4877H110.751C110.686 44.4877 110.647 44.4226 110.699 44.3705L113.39 40.71C111.999 40.4234 111.375 39.3682 111.375 38.0916C111.375 36.5935 112.402 35.369 114.131 35.369H117.329C117.368 35.369 117.381 35.395 117.381 35.4341V44.4226C117.381 44.4617 117.368 44.4877 117.329 44.4877H116.289C116.263 44.4877 116.237 44.4617 116.237 44.4226V40.8011L114.69 40.7881L112.038 44.4617Z" fill="#E22C38"></path>
        <path d="M72.9751 61.7916V52.8031C72.9751 52.764 73.0011 52.738 73.0401 52.738H76.0434C77.6686 52.738 78.7217 53.5066 78.7217 55.0437C78.7217 55.9165 78.3446 56.5027 77.7596 56.8675C78.7607 57.2192 79.2677 58.079 79.2677 59.095C79.2677 60.6582 78.3186 61.8567 76.1994 61.8567H73.0401C73.0011 61.8567 72.9751 61.8307 72.9751 61.7916ZM74.1192 53.8192V56.5548H75.9654C76.9275 56.5548 77.5386 56.1119 77.5386 55.1219C77.5386 54.21 76.9665 53.8192 75.9914 53.8192H74.1192ZM74.1192 57.6751V60.7494H76.1734C77.2915 60.7494 78.0976 60.3195 78.0976 59.1602C78.0976 58.0659 77.3565 57.6751 76.3034 57.6751H74.1192Z" fill="#E22C38"></path>
        <path d="M89.9363 52.8031V61.7916C89.9363 61.8307 89.9103 61.8567 89.8713 61.8567H88.8572C88.8182 61.8567 88.7922 61.8307 88.7922 61.7916V52.8031C88.7922 52.764 88.8182 52.738 88.8572 52.738H89.8713C89.9103 52.738 89.9363 52.764 89.9363 52.8031ZM84.3458 61.8567H81.3945C81.3555 61.8567 81.3295 61.8307 81.3295 61.7916V52.8031C81.3295 52.764 81.3555 52.738 81.3945 52.738H82.4216C82.4606 52.738 82.4736 52.764 82.4736 52.8031V56.4767H84.5278C86.0619 56.4767 87.1671 57.5579 87.1671 59.1732C87.1671 60.6713 86.166 61.8567 84.3458 61.8567ZM84.3718 57.597H82.4866V60.7234H84.4498C85.4119 60.7234 85.9839 60.0851 85.9839 59.1732C85.9839 58.2483 85.4639 57.597 84.3718 57.597Z" fill="#E22C38"></path>
        <path d="M99.7279 59.6552L100.404 60.3195C100.43 60.3326 100.43 60.3586 100.404 60.3977C99.5458 61.3356 98.3887 62 96.7116 62C94.0333 62 92.2261 59.9939 92.2261 57.3234C92.2261 54.6529 94.1113 52.5817 96.7506 52.5817C98.3887 52.5817 99.4548 53.1939 100.443 54.2751C100.469 54.3012 100.469 54.3273 100.443 54.3533L99.7019 55.0437C99.6759 55.0698 99.6369 55.0698 99.6108 55.0437C98.8308 54.1709 97.9987 53.6759 96.8156 53.6759C94.7744 53.6759 93.4352 55.2652 93.4352 57.3104C93.4352 59.3556 94.6833 60.8927 96.8936 60.8927C97.9727 60.8927 98.8308 60.4759 99.6369 59.6552C99.6629 59.6422 99.6889 59.6291 99.7279 59.6552Z" fill="#E22C38"></path>
        <path d="M101.267 52.738H108.21C108.249 52.738 108.275 52.764 108.275 52.8031V53.8062C108.275 53.8453 108.249 53.8583 108.21 53.8583H105.324V61.7916C105.324 61.8307 105.298 61.8567 105.259 61.8567H104.218C104.179 61.8567 104.153 61.8307 104.153 61.7916V53.8583H101.267C101.228 53.8583 101.202 53.8453 101.202 53.8062V52.8031C101.202 52.764 101.228 52.738 101.267 52.738Z" fill="#E22C38"></path>
        <path d="M112.418 54.5748L110.975 58.2874H113.926L112.418 54.5748ZM109.61 61.8176C109.597 61.8437 109.597 61.8567 109.558 61.8567H108.492C108.44 61.8567 108.401 61.8176 108.427 61.7655L111.963 52.7771C111.976 52.751 111.989 52.738 112.028 52.738H112.886C112.912 52.738 112.925 52.751 112.938 52.7771L116.553 61.7655C116.566 61.8176 116.54 61.8567 116.488 61.8567H115.409C115.383 61.8567 115.37 61.8437 115.357 61.8176L114.368 59.3686H110.559L109.61 61.8176Z" fill="#E22C38"></path>
        <path d="M118.289 61.7916V52.8031C118.289 52.764 118.315 52.738 118.354 52.738H121.358C122.983 52.738 124.036 53.5066 124.036 55.0437C124.036 55.9165 123.659 56.5027 123.074 56.8675C124.075 57.2192 124.582 58.079 124.582 59.095C124.582 60.6582 123.633 61.8567 121.514 61.8567H118.354C118.315 61.8567 118.289 61.8307 118.289 61.7916ZM119.433 53.8192V56.5548H121.28C122.242 56.5548 122.853 56.1119 122.853 55.1219C122.853 54.21 122.281 53.8192 121.306 53.8192H119.433ZM119.433 57.6751V60.7494H121.488C122.606 60.7494 123.412 60.3195 123.412 59.1602C123.412 58.0659 122.671 57.6751 121.618 57.6751H119.433Z" fill="#E22C38"></path>
        <path d="M127.788 61.8046C127.788 61.8307 127.775 61.8567 127.736 61.8567H126.696C126.67 61.8567 126.644 61.8307 126.644 61.8046V52.7901C126.644 52.764 126.67 52.738 126.696 52.738H127.736C127.775 52.738 127.788 52.764 127.788 52.7901V54.9786C127.788 55.9035 127.762 56.3203 127.723 56.6069C128.009 56.2552 128.269 55.9556 128.672 55.5387L131.389 52.7771C131.415 52.751 131.428 52.738 131.467 52.738H132.832C132.884 52.738 132.897 52.7771 132.858 52.8031L129.569 56.138C129.231 56.5027 129.023 56.6721 128.75 56.9196C129.023 57.1541 129.322 57.4276 129.556 57.6751L133.534 61.7916C133.573 61.8176 133.56 61.8567 133.508 61.8567H132.078C132.039 61.8567 132.026 61.8437 132 61.8176L128.776 58.5479C128.282 58.0399 128.009 57.7403 127.723 57.4016C127.762 57.7533 127.788 58.2874 127.788 59.4989V61.8046Z" fill="#E22C38"></path>
        <path d="M137.862 54.5748L136.419 58.2874H139.37L137.862 54.5748ZM135.054 61.8176C135.041 61.8437 135.041 61.8567 135.002 61.8567H133.936C133.884 61.8567 133.845 61.8176 133.871 61.7655L137.407 52.7771C137.42 52.751 137.433 52.738 137.472 52.738H138.33C138.356 52.738 138.369 52.751 138.382 52.7771L141.997 61.7655C142.01 61.8176 141.984 61.8567 141.932 61.8567H140.853C140.827 61.8567 140.814 61.8437 140.801 61.8176L139.812 59.3686H136.003L135.054 61.8176Z" fill="#E22C38"></path>
    </symbol>
    <symbol fill="none" xmlns="http://www.w3.org/2000/svg" viewBox="0 0 24 25" id="ticket">
        <path d="M16.5 6.5V7.25M16.5 10.25V11M16.5 14V14.75M16.5 17.75V18.5M7.5 13.25H12.75M7.5 15.5H10.5M3.375 5.75C2.754 5.75 2.25 6.254 2.25 6.875V9.901C2.70675 10.164 3.08612 10.5427 3.34992 10.9989C3.61371 11.4552 3.7526 11.973 3.7526 12.5C3.7526 13.027 3.61371 13.5448 3.34992 14.0011C3.08612 14.4573 2.70675 14.836 2.25 15.099V18.125C2.25 18.746 2.754 19.25 3.375 19.25H20.625C21.246 19.25 21.75 18.746 21.75 18.125V15.099C21.2933 14.836 20.9139 14.4573 20.6501 14.0011C20.3863 13.5448 20.2474 13.027 20.2474 12.5C20.2474 11.973 20.3863 11.4552 20.6501 10.9989C20.9139 10.5427 21.2933 10.164 21.75 9.901V6.875C21.75 6.254 21.246 5.75 20.625 5.75H3.375Z" stroke="white" stroke-width="1.5" stroke-linecap="round" stroke-linejoin="round"></path>
    </symbol>
    <symbol fill="none" xmlns="http://www.w3.org/2000/svg" viewBox="0 0 32 32" id="zen">
        <path fill-rule="evenodd" clip-rule="evenodd" d="M18.4366 18.1636C16.5393 20.0807 16.4059 22.4843 16.2452 27.7402C21.2043 27.7402 24.64 27.7245 26.4039 26.0245C28.1261 24.2847 28.1422 20.7351 28.1429 16.0015C22.8156 16.1601 20.38 16.2917 18.4366 18.1636ZM4.08203 16.0015C4.08203 20.7351 4.09856 24.2847 5.82074 26.0245C7.58447 27.7245 11.0207 27.7402 15.9798 27.7402C15.8191 22.4843 15.685 20.0807 13.7884 18.1636C11.845 16.2917 9.40948 16.1601 4.08203 16.0015ZM15.9798 4C11.0207 4.00047 7.58447 4.01674 5.82074 5.71618C4.09856 7.45606 4.08203 11.0056 4.08203 15.7392C9.40883 15.5806 11.845 15.449 13.7878 13.577C15.685 11.66 15.8184 9.25642 15.9798 4ZM18.4366 13.577C16.5393 11.66 16.4059 9.25642 16.2452 4C21.2043 4.00047 24.64 4.01674 26.4039 5.71618C28.1261 7.45606 28.1422 11.0056 28.1429 15.7392C22.8156 15.5806 20.38 15.449 18.4366 13.577Z" fill="#7A7A7C"></path>
    </symbol>
</svg>